<svg width="13" height="12" viewBox="0 0 13 12" fill="none" xmlns="http://www.w3.org/2000/svg">
<path d="M4.494 11H2.996L8.82 1.13H10.318L4.494 11ZM3.108 7.024C2.31467 7.024 1.694 6.75333 1.246 6.212C0.798 5.67067 0.574 4.93333 0.574 4C0.574 3.05733 0.798 2.32 1.246 1.788C1.70333 1.256 2.324 0.99 3.108 0.99C3.90133 0.99 4.522 1.26067 4.97 1.802C5.418 2.34333 5.642 3.076 5.642 4C5.642 4.93333 5.418 5.67067 4.97 6.212C4.522 6.75333 3.90133 7.024 3.108 7.024ZM3.108 5.904C3.45333 5.904 3.71933 5.75 3.906 5.442C4.102 5.134 4.2 4.65333 4.2 4C4.2 3.33733 4.102 2.86133 3.906 2.572C3.71933 2.27333 3.45333 2.124 3.108 2.124C2.76267 2.124 2.492 2.26867 2.296 2.558C2.10933 2.84733 2.016 3.328 2.016 4C2.016 4.672 2.10933 5.15733 2.296 5.456C2.492 5.75467 2.76267 5.904 3.108 5.904ZM10.206 11.14C9.41267 11.14 8.792 10.8693 8.344 10.328C7.896 9.77733 7.672 9.03533 7.672 8.102C7.672 7.15933 7.896 6.42667 8.344 5.904C8.80133 5.372 9.422 5.106 10.206 5.106C10.9993 5.106 11.62 5.37667 12.068 5.918C12.516 6.45 12.74 7.178 12.74 8.102C12.74 9.03533 12.516 9.77733 12.068 10.328C11.62 10.8693 10.9993 11.14 10.206 11.14ZM10.206 10.006C10.5513 10.006 10.8173 9.85667 11.004 9.558C11.2 9.25 11.298 8.76467 11.298 8.102C11.298 7.43933 11.2 6.96333 11.004 6.674C10.8173 6.37533 10.5513 6.226 10.206 6.226C9.86067 6.226 9.59 6.37533 9.394 6.674C9.20733 6.96333 9.114 7.43933 9.114 8.102C9.114 8.774 9.20733 9.25933 9.394 9.558C9.59 9.85667 9.86067 10.006 10.206 10.006Z" fill="black"/>
</svg>
