<svg width="17" height="14" viewBox="0 0 17 14" fill="none" xmlns="http://www.w3.org/2000/svg">
<path d="M0.092 12V2.13H4.404C5.48667 2.13 6.322 2.38667 6.91 2.9C7.50733 3.41333 7.806 4.12733 7.806 5.042C7.806 5.64867 7.67067 6.16667 7.4 6.596C7.13867 7.02533 6.76067 7.35667 6.266 7.59C5.77133 7.814 5.188 7.926 4.516 7.926L4.712 7.66H5.188C5.58 7.66 5.93 7.76267 6.238 7.968C6.546 8.17333 6.798 8.486 6.994 8.906L8.436 12H6.448L4.992 8.794C4.86133 8.46733 4.66067 8.25267 4.39 8.15C4.12867 8.04733 3.81133 7.996 3.438 7.996H1.898V12H0.092ZM1.898 6.666H4.11C4.74467 6.666 5.22533 6.53533 5.552 6.274C5.888 6.00333 6.056 5.61133 6.056 5.098C6.056 4.58467 5.888 4.19733 5.552 3.936C5.22533 3.67467 4.74467 3.544 4.11 3.544H1.898V6.666ZM12.4701 13.61V11.776L12.7921 12.084C12.3441 12.0653 11.9054 12.014 11.4761 11.93C11.0561 11.846 10.6594 11.7247 10.2861 11.566C9.92208 11.398 9.59541 11.1973 9.30608 10.964L9.85208 9.55C10.2907 9.87667 10.7714 10.1287 11.2941 10.306C11.8167 10.4833 12.3907 10.572 13.0161 10.572C13.7161 10.572 14.2247 10.4507 14.5421 10.208C14.8687 9.956 15.0321 9.64333 15.0321 9.27C15.0321 8.962 14.9154 8.71467 14.6821 8.528C14.4581 8.34133 14.0707 8.18733 13.5201 8.066L12.0361 7.744C11.4667 7.61333 10.9907 7.43133 10.6081 7.198C10.2347 6.96467 9.95474 6.67067 9.76808 6.316C9.59074 5.952 9.50208 5.532 9.50208 5.056C9.50208 4.50533 9.63741 4.01533 9.90808 3.586C10.1787 3.14733 10.5567 2.79733 11.0421 2.536C11.5274 2.27467 12.0967 2.12067 12.7501 2.074L12.4701 2.284V0.519999H13.8701V2.284L13.5761 2.06C14.1081 2.088 14.6307 2.19533 15.1441 2.382C15.6667 2.56867 16.1007 2.83933 16.4461 3.194L15.9141 4.538C15.5594 4.21133 15.1534 3.96867 14.6961 3.81C14.2387 3.642 13.7394 3.558 13.1981 3.558C12.5821 3.558 12.0967 3.69333 11.7421 3.964C11.3874 4.22533 11.2101 4.57067 11.2101 5C11.2101 5.31733 11.3174 5.57867 11.5321 5.784C11.7561 5.98 12.1247 6.134 12.6381 6.246L14.1221 6.568C15.0181 6.75467 15.6807 7.06267 16.1101 7.492C16.5487 7.912 16.7681 8.46733 16.7681 9.158C16.7681 9.69933 16.6327 10.18 16.3621 10.6C16.0914 11.0107 15.7181 11.342 15.2421 11.594C14.7754 11.8367 14.2294 11.9907 13.6041 12.056L13.8701 11.762V13.61H12.4701Z" fill="white"/>
</svg>
